<?xml version="1.0" encoding="utf-8"?>
<!-- Generator: Adobe Illustrator 25.2.0, SVG Export Plug-In . SVG Version: 6.00 Build 0)  -->
<svg version="1.1" id="Layer_2_1_" xmlns="http://www.w3.org/2000/svg" xmlns:xlink="http://www.w3.org/1999/xlink" x="0px" y="0px"
	 viewBox="0 0 134.6 53.1" style="enable-background:new 0 0 134.6 53.1;" xml:space="preserve">
<style type="text/css">
	.st0{fill:none;}
	.st1{enable-background:new    ;}
</style>
<rect x="55.6" y="3.3" class="st0" width="73.3" height="23"/>
<g class="st1">
	<path d="M67.1,15.6h-6.7v8.8h-2.5V4.5h10.4v2.1h-7.9v6.8h6.7V15.6z"/>
	<path d="M78.2,23.1c-0.8,1-2,1.6-3.5,1.6c-1.3,0-2.4-0.5-3-1.4s-1-2.3-1-4V9.6H73V19c0,2.3,0.7,3.5,2.1,3.5c1.5,0,2.5-0.7,3-2v-11
		h2.4v14.8h-2.3L78.2,23.1z"/>
	<path d="M87.3,6v3.6h2.2v2h-2.2v9.2c0,0.6,0.1,1,0.3,1.3c0.2,0.3,0.5,0.5,1,0.5c0.3,0,0.6-0.1,1-0.2l0,2c-0.5,0.2-1.1,0.3-1.7,0.3
		c-1,0-1.7-0.3-2.2-1c-0.5-0.7-0.8-1.6-0.8-2.9v-9.2h-2.3v-2h2.3V6H87.3z"/>
	<path d="M100,23.1c-0.8,1-2,1.6-3.5,1.6c-1.3,0-2.4-0.5-3-1.4s-1-2.3-1-4V9.6h2.4V19c0,2.3,0.7,3.5,2.1,3.5c1.5,0,2.5-0.7,3-2v-11
		h2.4v14.8H100L100,23.1z"/>
	<path d="M112.1,11.9c-0.3-0.1-0.7-0.1-1.1-0.1c-1.2,0-2.1,0.7-2.6,2v10.6H106V9.6h2.4l0,1.5c0.6-1.2,1.6-1.8,2.7-1.8
		c0.4,0,0.7,0.1,1,0.2L112.1,11.9z"/>
	<path d="M119.5,24.7c-1.8,0-3.3-0.5-4.2-1.6s-1.5-2.7-1.5-4.8v-1.8c0-2.2,0.5-3.9,1.4-5.2c1-1.3,2.3-1.9,4-1.9c1.7,0,3,0.6,3.9,1.7
		c0.9,1.1,1.3,2.8,1.3,5.2v1.6h-8.3V18c0,1.6,0.3,2.7,0.9,3.5c0.6,0.7,1.5,1.1,2.6,1.1c0.7,0,1.3-0.1,1.9-0.4c0.5-0.3,1-0.7,1.5-1.3
		l1.3,1.5C123.3,23.9,121.7,24.7,119.5,24.7z M119.2,11.4c-1,0-1.7,0.3-2.2,1c-0.5,0.7-0.8,1.8-0.8,3.2h5.8v-0.3
		c-0.1-1.4-0.3-2.4-0.8-3C120.8,11.7,120.2,11.4,119.2,11.4z"/>
</g>
<rect x="76.8" y="29.8" class="st0" width="61.2" height="23.1"/>
<g class="st1">
	<path d="M87.7,45.8c0-1-0.3-1.8-0.8-2.3s-1.5-1-2.9-1.5s-2.5-1-3.2-1.6s-1.3-1.2-1.7-1.9s-0.6-1.5-0.6-2.4c0-1.6,0.5-2.9,1.6-3.9
		s2.4-1.5,4.1-1.5c1.2,0,2.2,0.3,3.1,0.8s1.6,1.2,2.1,2.2s0.7,1.9,0.7,3.1h-2.5c0-1.2-0.3-2.2-0.9-2.9s-1.4-1-2.6-1
		c-1,0-1.8,0.3-2.4,0.8C81.3,34.2,81,35,81,36c0,0.8,0.3,1.5,0.9,2.1c0.6,0.6,1.5,1.1,2.8,1.5c2,0.6,3.4,1.4,4.2,2.4
		s1.3,2.2,1.3,3.7c0,1.6-0.5,2.9-1.6,3.9s-2.5,1.5-4.3,1.5c-1.2,0-2.2-0.3-3.2-0.8s-1.8-1.2-2.3-2.1s-0.8-2-0.8-3.2h2.5
		c0,1.2,0.3,2.2,1,2.9s1.6,1,2.8,1c1.1,0,1.9-0.3,2.5-0.8S87.7,46.8,87.7,45.8z"/>
	<path d="M96.8,44.1l-1.3,1.5v5.3h-2.4v-21h2.4v12.6l4.6-6.4h2.9l-4.7,6.2l5.3,8.6h-2.8L96.8,44.1z"/>
	<path d="M108.5,32.1c0,0.4-0.1,0.8-0.3,1s-0.6,0.4-1,0.4c-0.5,0-0.8-0.1-1-0.4s-0.3-0.6-0.3-1s0.1-0.8,0.3-1s0.6-0.4,1-0.4
		s0.8,0.1,1,0.4S108.5,31.7,108.5,32.1z M108.4,50.8h-2.4V36.1h2.4V50.8z"/>
	<path d="M114.8,50.8h-2.4v-21h2.4V50.8z"/>
	<path d="M121.2,50.8h-2.4v-21h2.4V50.8z"/>
	<path d="M132.2,47.1c0-0.5-0.2-1-0.6-1.3s-1.1-0.8-2.3-1.3c-1.3-0.5-2.2-1-2.8-1.4s-0.9-0.8-1.2-1.3S125,40.7,125,40
		c0-1.2,0.4-2.2,1.3-3s2-1.2,3.4-1.2c1.4,0,2.6,0.4,3.5,1.3s1.3,1.9,1.3,3.2H132c0-0.7-0.2-1.2-0.7-1.7s-1-0.7-1.7-0.7
		c-0.7,0-1.3,0.2-1.7,0.6c-0.4,0.4-0.6,0.9-0.6,1.5c0,0.5,0.1,0.9,0.4,1.2s1,0.7,2.1,1.2c1.8,0.7,3,1.4,3.7,2.1s1,1.5,1,2.6
		c0,1.3-0.4,2.3-1.3,3.1s-2.1,1.2-3.6,1.2c-1.5,0-2.8-0.4-3.7-1.3s-1.4-2-1.4-3.4h2.4c0,0.8,0.3,1.5,0.8,1.9s1.1,0.7,2,0.7
		c0.8,0,1.4-0.2,1.8-0.5S132.2,47.7,132.2,47.1z"/>
</g>
<path d="M34.5,9.2v30.3c0,1-0.8,1.8-1.8,1.8H6.6v2.1h26.1c0,0,0.1,0,0.1,0c0.1,0,0.1,0,0.2,0c1.9-0.2,3.4-1.7,3.6-3.6V9.2H34.5z
	 M34.5,9.2v30.3c0,1-0.8,1.8-1.8,1.8H4.4v2.1h28.3c0,0,0.1,0,0.1,0c0.1,0,0.1,0,0.2,0c1.9-0.2,3.4-1.7,3.6-3.6V9.2H34.5z M34.5,9.2
	v30.3c0,1-0.8,1.8-1.8,1.8H6.6v2.1h26.1c0,0,0.1,0,0.1,0c0.1,0,0.1,0,0.2,0c1.9-0.2,3.4-1.7,3.6-3.6V9.2H34.5z M34.5,9.2v30.3
	c0,1-0.8,1.8-1.8,1.8H6.6v2.1h26.1c0,0,0.1,0,0.1,0c0.1,0,0.1,0,0.2,0c1.9-0.2,3.4-1.7,3.6-3.6V9.2H34.5z M34.5,9.2v30.3
	c0,1-0.8,1.8-1.8,1.8h-21v2.1h21c0,0,0.1,0,0.1,0c0.1,0,0.1,0,0.2,0c1.9-0.2,3.4-1.7,3.6-3.6V9.2H34.5z M34.5,9.2v30.3
	c0,1-0.8,1.8-1.8,1.8h-21v2.1h21c0,0,0.1,0,0.1,0c0.1,0,0.1,0,0.2,0c1.9-0.2,3.4-1.7,3.6-3.6V9.2H34.5z M34.5,9.2v30.3
	c0,1-0.8,1.8-1.8,1.8H6.6v2.1h26.1c0,0,0.1,0,0.1,0c0.1,0,0.1,0,0.2,0c1.9-0.2,3.4-1.7,3.6-3.6V9.2H34.5z M34.5,9.2v30.3
	c0,1-0.8,1.8-1.8,1.8H6.6v2.1h26.1c0,0,0.1,0,0.1,0c0.1,0,0.1,0,0.2,0c1.9-0.2,3.4-1.7,3.6-3.6V9.2H34.5z M34.5,9.2v30.3
	c0,1-0.8,1.8-1.8,1.8H6.6v2.1h26.1c0,0,0.1,0,0.1,0c0.1,0,0.1,0,0.2,0c1.9-0.2,3.4-1.7,3.6-3.6V9.2H34.5z M34.5,9.2v30.3
	c0,1-0.8,1.8-1.8,1.8h-21v2.1h21c0,0,0.1,0,0.1,0c0.1,0,0.1,0,0.2,0c1.9-0.2,3.4-1.7,3.6-3.6V9.2H34.5z M34.5,9.2v30.3
	c0,1-0.8,1.8-1.8,1.8h-21v2.1h21c0,0,0.1,0,0.1,0c0.1,0,0.1,0,0.2,0c1.9-0.2,3.4-1.7,3.6-3.6V9.2H34.5z M32.7,0H0v43.4h32.7
	c0,0,0.1,0,0.1,0c0.1,0,0.1,0,0.2,0c1.9-0.2,3.4-1.7,3.6-3.6V3.9C36.7,1.8,34.9,0,32.7,0z M34.5,39.5c0,1-0.8,1.8-1.8,1.8H2.2V2.2
	h30.5c1,0,1.8,0.8,1.8,1.8V39.5z"/>
<path d="M41.1,8.9v34c0,3-2.5,5.5-5.5,5.5h-30l-1-0.9l-0.2-0.2V44L6,45.5L6.6,46v0.1h29c1.8,0,3.3-1.5,3.3-3.3v-34
	c0-1-0.8-1.8-1.8-1.8h-2.6V4.8h2.6C39.3,4.8,41.1,6.6,41.1,8.9z"/>
<path d="M45.8,13.1v33.8c0,3.4-2.8,6.2-6.2,6.2H10.9l-1.7-1.6v-2.8l2.2,2v0.2h28.4c2.2,0,4-1.8,4-4V13.2c0-1-0.8-1.8-1.8-1.8h-3V9.2
	h3C44.1,9.2,45.8,10.9,45.8,13.1z"/>
<g>
	<polygon points="14.6,53.1 10.9,53.1 9.1,51.6 5.6,48.4 4.7,47.6 4.4,47.3 3.2,46.2 0.1,43.4 0,43.4 0,40.1 3.7,43.4 3.8,43.5 
		4.4,44 6.1,45.5 6.6,46 6.6,46.1 6.7,46.1 9.2,48.3 9.5,48.6 11.7,50.6 11.9,50.8 12.1,50.9 	"/>
</g>
</svg>
