<svg id="Layer_2" data-name="Layer 2" xmlns="http://www.w3.org/2000/svg" viewBox="0 0 134.6 53.1"><defs><style>.cls-1{isolation:isolate;}.cls-2{fill:#fdfffc;}</style></defs><g class="cls-1"><path class="cls-2" d="M67.1,15.6H60.4v8.8H57.9V4.5H68.3V6.6H60.4v6.8h6.7Z"/><path class="cls-2" d="M78.2,23.1a4.33,4.33,0,0,1-3.5,1.6,3.49,3.49,0,0,1-3-1.4,7.35,7.35,0,0,1-1-4V9.6H73V19c0,2.3.7,3.5,2.1,3.5a3,3,0,0,0,3-2V9.5h2.4V24.3H78.2Z"/><path class="cls-2" d="M87.3,6V9.6h2.2v2H87.3v9.2a2.27,2.27,0,0,0,.3,1.3,1.1,1.1,0,0,0,1,.5,4.4,4.4,0,0,0,1-.2v2a4.67,4.67,0,0,1-1.7.3,2.46,2.46,0,0,1-2.2-1,4.77,4.77,0,0,1-.8-2.9V11.6H82.6v-2h2.3V6Z"/><path class="cls-2" d="M100,23.1a4.33,4.33,0,0,1-3.5,1.6,3.49,3.49,0,0,1-3-1.4,7.35,7.35,0,0,1-1-4V9.6h2.4V19c0,2.3.7,3.5,2.1,3.5a3,3,0,0,0,3-2V9.5h2.4V24.3H100Z"/><path class="cls-2" d="M112.1,11.9a3.75,3.75,0,0,0-1.1-.1,2.73,2.73,0,0,0-2.6,2V24.4H106V9.6h2.4v1.5a2.85,2.85,0,0,1,3.7-1.6Z"/><path class="cls-2" d="M119.5,24.7a5.22,5.22,0,0,1-4.2-1.6,7.43,7.43,0,0,1-1.5-4.8V16.5a8.91,8.91,0,0,1,1.4-5.2,4.71,4.71,0,0,1,4-1.9,4.78,4.78,0,0,1,3.9,1.7c.9,1.1,1.3,2.8,1.3,5.2v1.6h-8.3V18a5.64,5.64,0,0,0,.9,3.5,3.31,3.31,0,0,0,2.6,1.1,4.06,4.06,0,0,0,1.9-.4,5.8,5.8,0,0,0,1.5-1.3l1.3,1.5A5.38,5.38,0,0,1,119.5,24.7Zm-.3-13.3a2.46,2.46,0,0,0-2.2,1,5.58,5.58,0,0,0-.8,3.2H122v-.3a5.4,5.4,0,0,0-.8-3A2.15,2.15,0,0,0,119.2,11.4Z"/></g><g class="cls-1"><path class="cls-2" d="M87.7,45.8a3.2,3.2,0,0,0-.8-2.3A8.39,8.39,0,0,0,84,42a10.52,10.52,0,0,1-3.2-1.6,7.51,7.51,0,0,1-1.7-1.9,4.75,4.75,0,0,1-.6-2.4,5,5,0,0,1,1.6-3.9,5.75,5.75,0,0,1,4.1-1.5,6.21,6.21,0,0,1,3.1.8,5,5,0,0,1,2.1,2.2,6.43,6.43,0,0,1,.7,3.1H87.6a4.37,4.37,0,0,0-.9-2.9,3.12,3.12,0,0,0-2.6-1,3.65,3.65,0,0,0-2.4.8A3.7,3.7,0,0,0,81,36a2.88,2.88,0,0,0,.9,2.1,6.63,6.63,0,0,0,2.8,1.5A8.32,8.32,0,0,1,88.9,42a5.73,5.73,0,0,1,1.3,3.7,5,5,0,0,1-1.6,3.9,6.09,6.09,0,0,1-4.3,1.5,6.9,6.9,0,0,1-3.2-.8,5.23,5.23,0,0,1-2.3-2.1A6.6,6.6,0,0,1,78,45h2.5a4,4,0,0,0,1,2.9,4.37,4.37,0,0,0,5.3.2A2.87,2.87,0,0,0,87.7,45.8Z"/><path class="cls-2" d="M96.8,44.1l-1.3,1.5v5.3H93.1v-21h2.4V42.5l4.6-6.4H103l-4.7,6.2,5.3,8.6h-2.8Z"/><path class="cls-2" d="M108.5,32.1a1.49,1.49,0,0,1-.3,1,1.53,1.53,0,0,1-1,.4,1.05,1.05,0,0,1-1-.4,1.69,1.69,0,0,1-.3-1,1.49,1.49,0,0,1,.3-1,1.53,1.53,0,0,1,1-.4,1.16,1.16,0,0,1,1,.4A1.69,1.69,0,0,1,108.5,32.1Zm-.1,18.7H106V36.1h2.4Z"/><path class="cls-2" d="M114.8,50.8h-2.4v-21h2.4Z"/><path class="cls-2" d="M121.2,50.8h-2.4v-21h2.4Z"/><path class="cls-2" d="M132.2,47.1a1.61,1.61,0,0,0-.6-1.3,10.1,10.1,0,0,0-2.3-1.3,14.28,14.28,0,0,1-2.8-1.4,3.66,3.66,0,0,1-1.2-1.3A3.43,3.43,0,0,1,125,40a3.8,3.8,0,0,1,1.3-3,4.87,4.87,0,0,1,3.4-1.2,4.75,4.75,0,0,1,3.5,1.3,4.22,4.22,0,0,1,1.3,3.2H132a2.39,2.39,0,0,0-2.4-2.4,2.35,2.35,0,0,0-1.7.6,2,2,0,0,0-.6,1.5,1.59,1.59,0,0,0,.4,1.2,8.25,8.25,0,0,0,2.1,1.2,10.9,10.9,0,0,1,3.7,2.1,3.39,3.39,0,0,1,1,2.6,3.87,3.87,0,0,1-1.3,3.1,5.22,5.22,0,0,1-3.6,1.2,5.08,5.08,0,0,1-3.7-1.3,4.6,4.6,0,0,1-1.4-3.4h2.4a2.41,2.41,0,0,0,.8,1.9,3,3,0,0,0,2,.7,3,3,0,0,0,1.8-.5A2.41,2.41,0,0,0,132.2,47.1Z"/></g><path class="cls-2" d="M34.5,9.2V39.5a1.79,1.79,0,0,1-1.8,1.8H6.6v2.1H33a4,4,0,0,0,3.6-3.6V9.2Zm0,0V39.5a1.79,1.79,0,0,1-1.8,1.8H4.4v2.1H33a4,4,0,0,0,3.6-3.6V9.2Zm0,0V39.5a1.79,1.79,0,0,1-1.8,1.8H6.6v2.1H33a4,4,0,0,0,3.6-3.6V9.2Zm0,0V39.5a1.79,1.79,0,0,1-1.8,1.8H6.6v2.1H33a4,4,0,0,0,3.6-3.6V9.2Zm0,0V39.5a1.79,1.79,0,0,1-1.8,1.8h-21v2.1H33a4,4,0,0,0,3.6-3.6V9.2Zm0,0V39.5a1.79,1.79,0,0,1-1.8,1.8h-21v2.1H33a4,4,0,0,0,3.6-3.6V9.2Zm0,0V39.5a1.79,1.79,0,0,1-1.8,1.8H6.6v2.1H33a4,4,0,0,0,3.6-3.6V9.2Zm0,0V39.5a1.79,1.79,0,0,1-1.8,1.8H6.6v2.1H33a4,4,0,0,0,3.6-3.6V9.2Zm0,0V39.5a1.79,1.79,0,0,1-1.8,1.8H6.6v2.1H33a4,4,0,0,0,3.6-3.6V9.2Zm0,0V39.5a1.79,1.79,0,0,1-1.8,1.8h-21v2.1H33a4,4,0,0,0,3.6-3.6V9.2Zm0,0V39.5a1.79,1.79,0,0,1-1.8,1.8h-21v2.1H33a4,4,0,0,0,3.6-3.6V9.2ZM32.7,0H0V43.4H33a4,4,0,0,0,3.6-3.6V3.9A3.84,3.84,0,0,0,32.7,0Zm1.8,39.5a1.79,1.79,0,0,1-1.8,1.8H2.2V2.2H32.7A1.79,1.79,0,0,1,34.5,4Z"/><path class="cls-2" d="M41.1,8.9v34a5.55,5.55,0,0,1-5.5,5.5H5.6l-1-.9-.2-.2V44L6,45.5l.6.5v.1h29a3.33,3.33,0,0,0,3.3-3.3V8.8A1.79,1.79,0,0,0,37.1,7H34.5V4.8h2.6A4,4,0,0,1,41.1,8.9Z"/><path class="cls-2" d="M45.8,13.1V46.9a6.23,6.23,0,0,1-6.2,6.2H10.9L9.2,51.5V48.7l2.2,2v.2H39.8a4,4,0,0,0,4-4V13.2A1.79,1.79,0,0,0,42,11.4H39V9.2h3A3.82,3.82,0,0,1,45.8,13.1Z"/><polygon class="cls-2" points="14.6 53.1 10.9 53.1 9.1 51.6 5.6 48.4 4.7 47.6 4.4 47.3 3.2 46.2 0.1 43.4 0 43.4 0 40.1 3.7 43.4 3.8 43.5 4.4 44 6.1 45.5 6.6 46 6.6 46.1 6.7 46.1 9.2 48.3 9.5 48.6 11.7 50.6 11.9 50.8 12.1 50.9 14.6 53.1"/></svg>